<svg width="20" height="20" viewBox="0 0 20 20" fill="none" xmlns="http://www.w3.org/2000/svg">
<g opacity="0.35">
<path d="M10.2038 6.82355C8.44604 6.82355 7.02106 8.24853 7.02106 10.0063C7.02106 11.7641 8.44604 13.1891 10.2038 13.1891C11.9616 13.1891 13.3866 11.7641 13.3866 10.0063C13.3866 8.24853 11.9616 6.82355 10.2038 6.82355Z" fill="#FCFCFC"/>
<path fill-rule="evenodd" clip-rule="evenodd" d="M6.38451 0.458008C3.22047 0.458008 0.655518 3.02296 0.655518 6.187V13.8257C0.655518 16.9897 3.22047 19.5546 6.38451 19.5546H14.0232C17.1872 19.5546 19.7522 16.9897 19.7522 13.8257V6.187C19.7522 3.02297 17.1872 0.458008 14.0232 0.458008H6.38451ZM5.74795 10.0063C5.74795 7.54541 7.74292 5.55044 10.2038 5.55044C12.6648 5.55044 14.6597 7.54541 14.6597 10.0063C14.6597 12.4672 12.6648 14.4622 10.2038 14.4622C7.74292 14.4622 5.74795 12.4672 5.74795 10.0063ZM14.6597 5.55044H15.9328V4.27734H14.6597V5.55044Z" fill="#FCFCFC"/>
</g>
</svg>
