<svg width="20" height="20" viewBox="0 0 20 20" fill="none" xmlns="http://www.w3.org/2000/svg">
<g opacity="0.35">
<path fill-rule="evenodd" clip-rule="evenodd" d="M0.050293 2.36767C0.050293 1.31299 0.905278 0.458008 1.95996 0.458008H17.2373C18.2919 0.458008 19.1469 1.31299 19.1469 2.36767V17.645C19.1469 18.6997 18.2919 19.5546 17.2373 19.5546H1.95996C0.905279 19.5546 0.050293 18.6997 0.050293 17.645V2.36767ZM6.41584 6.82355H5.14273V5.55044H6.41584V6.82355ZM5.14273 14.4622V8.09666H6.41584V14.4622H5.14273ZM10.8717 9.36977C9.81704 9.36977 8.96206 10.2248 8.96206 11.2794V14.4622H7.68895V8.09666H8.96206V8.73298C9.494 8.33343 10.1552 8.09666 10.8717 8.09666C12.6295 8.09666 14.0545 9.52164 14.0545 11.2794V14.4622H12.7814V11.2794C12.7814 10.2248 11.9264 9.36977 10.8717 9.36977Z" fill="#FCFCFC"/>
</g>
</svg>
