<svg width="20" height="20" viewBox="0 0 20 20" fill="none" xmlns="http://www.w3.org/2000/svg">
<g opacity="0.35">
<path d="M19.5258 2.32543C19.5089 2.07008 19.3407 1.84969 19.0988 1.76599C18.857 1.68229 18.5885 1.75155 18.4174 1.9418C17.9774 2.43088 17.4213 2.76228 16.8569 2.91339C16.072 2.18056 15.0173 1.73098 13.8583 1.73098C11.3709 1.73098 9.35607 3.7503 9.35607 6.23918V6.79911C5.54788 6.50481 3.5114 3.61196 2.96189 2.14433C2.87307 1.9071 2.65205 1.74512 2.39909 1.73186C2.14612 1.71859 1.90937 1.85658 1.79623 2.08321C0.463633 4.75252 0.258311 7.3415 1.22684 9.5461C2.07526 11.4773 3.78153 13.0157 6.19984 14.0349C5.10077 14.8137 3.25094 15.7352 1.09461 15.7352C0.814187 15.7352 0.566795 15.9187 0.485436 16.1871C0.404078 16.4554 0.507921 16.7454 0.741137 16.9011C2.8088 18.2817 4.97582 18.2815 6.9914 18.2814L7.05309 18.2814C13.2412 18.2814 18.256 13.2574 18.256 7.06212V6.4532C18.7187 5.98294 19.079 5.50156 19.2997 4.87923C19.546 4.18482 19.5957 3.37963 19.5258 2.32543Z" fill="#FCFCFC"/>
</g>
</svg>
