<svg width="20" height="20" viewBox="0 0 20 20" fill="none" xmlns="http://www.w3.org/2000/svg">
<g opacity="0.35">
<path d="M6.81086 6.52786C7.19394 6.28423 7.70463 6.50983 7.77978 6.96072L7.95731 8.02589C7.99849 8.27297 7.89093 8.52124 7.68251 8.66018L7.04468 9.08541C6.89252 8.57016 6.81086 8.02467 6.81086 7.46011V6.52786Z" fill="#FCFCFC"/>
<path d="M12.5398 13.1891C11.9753 13.1891 11.4298 13.1074 10.9146 12.9553L11.3398 12.3174C11.4787 12.109 11.727 12.0015 11.9741 12.0427L13.0392 12.2202C13.4901 12.2953 13.7157 12.806 13.4721 13.1891H12.5398Z" fill="#FCFCFC"/>
<path fill-rule="evenodd" clip-rule="evenodd" d="M0.44533 10.0063C0.44533 4.73294 4.72026 0.458008 9.99365 0.458008C15.267 0.458008 19.542 4.73294 19.542 10.0063C19.542 15.2797 15.267 19.5546 9.99365 19.5546C7.98734 19.5546 6.12411 18.9352 4.58682 17.8773L1.36656 19.4874C1.12149 19.61 0.825515 19.5619 0.631773 19.3682C0.438031 19.1745 0.39 18.8785 0.512533 18.6334L2.12266 15.4132C1.06479 13.8759 0.44533 12.0126 0.44533 10.0063ZM5.82953 5.65181L6.0926 5.47643C7.24562 4.70775 8.80775 5.38451 9.03557 6.75142L9.2131 7.81659C9.33664 8.55784 9.01397 9.30263 8.3887 9.71947L7.55071 10.2781C8.0635 11.1841 8.81591 11.9365 9.72183 12.4493L10.2805 11.6113C10.6973 10.986 11.4421 10.6633 12.1834 10.7869L13.2485 10.9644C14.6155 11.1922 15.2922 12.7543 14.5235 13.9074L14.3478 14.1709C14.2345 14.3462 14.0373 14.4622 13.813 14.4622H12.5398C8.6727 14.4622 5.53775 11.3273 5.53775 7.46011V6.187C5.53775 5.9625 5.65397 5.76514 5.82953 5.65181Z" fill="#FCFCFC"/>
</g>
</svg>
