<svg width="20" height="20" viewBox="0 0 20 20" fill="none" xmlns="http://www.w3.org/2000/svg">
<g opacity="0.35">
<path d="M11.1948 10.0067L9.15957 11.3635V8.64986L11.1948 10.0067Z" fill="#FCFCFC"/>
<path fill-rule="evenodd" clip-rule="evenodd" d="M2.16524 2.71565C7.1954 1.63775 12.3968 1.63775 17.427 2.71565C18.5454 2.95531 19.3444 3.94368 19.3444 5.08749V14.9259C19.3444 16.0697 18.5454 17.058 17.427 17.2977C12.3968 18.3756 7.1954 18.3756 2.16524 17.2977C1.04682 17.058 0.247803 16.0697 0.247803 14.9259V5.08749C0.247803 3.94368 1.04682 2.95531 2.16524 2.71565ZM8.87611 6.93081C8.68078 6.80059 8.42963 6.78844 8.22265 6.89922C8.01567 7.00999 7.88646 7.22569 7.88646 7.46045V12.5529C7.88646 12.7876 8.01567 13.0033 8.22265 13.1141C8.42963 13.2249 8.68078 13.2128 8.87611 13.0825L12.6954 10.5363C12.8725 10.4183 12.9789 10.2195 12.9789 10.0067C12.9789 9.79384 12.8725 9.59508 12.6954 9.47702L8.87611 6.93081Z" fill="#FCFCFC"/>
</g>
</svg>
