<svg width="41" height="41" viewBox="0 0 41 41" fill="none" xmlns="http://www.w3.org/2000/svg">
<path fill-rule="evenodd" clip-rule="evenodd" d="M20.5 11.2085C18.2305 11.2085 15.8494 11.5649 13.4429 12.317C10.1848 13.3354 6.88127 15.0788 3.74351 17.6451L3.70321 17.6781C3.14713 18.1329 2.6675 18.5251 2.32146 18.906C1.94362 19.322 1.67691 19.774 1.59894 20.359C1.51937 20.9561 1.6765 21.4792 1.94639 21.9952C2.19763 22.4756 2.58323 23.0154 3.0379 23.6519L3.06759 23.6935L3.18302 23.8551L3.21211 23.8958L3.21213 23.8958C3.70515 24.5861 4.11745 25.1633 4.50722 25.5812C4.91937 26.0231 5.37501 26.3644 5.97824 26.4841C6.58147 26.6039 7.1329 26.4625 7.68259 26.2116C8.20243 25.9743 8.80398 25.5983 9.5233 25.1487L9.56575 25.1222L11.5308 23.894L11.6535 23.8174C12.3567 23.379 12.9139 23.0316 13.2537 22.4805C13.5935 21.9294 13.6537 21.2755 13.7295 20.4503L13.7428 20.3063L14.3666 13.6052C16.4691 12.9954 18.5355 12.7085 20.5 12.7085C22.4646 12.7085 24.5309 12.9954 26.6334 13.6053L27.2572 20.3063L27.2705 20.4503C27.3464 21.2755 27.4065 21.9294 27.7463 22.4805C28.0861 23.0316 28.6433 23.379 29.3466 23.8174L29.4693 23.894L31.4343 25.1222L31.4768 25.1487L31.4769 25.1488C32.1961 25.5983 32.7977 25.9743 33.3175 26.2116C33.8671 26.4626 34.4186 26.6039 35.0218 26.4841C35.625 26.3644 36.0807 26.0231 36.4928 25.5813C36.8826 25.1634 37.2949 24.5862 37.7879 23.8959L37.817 23.8551L37.9324 23.6936L37.9622 23.6519C38.4168 23.0155 38.8024 22.4757 39.0536 21.9954C39.3235 21.4793 39.4807 20.9562 39.4011 20.3592C39.3231 19.7742 39.0564 19.3221 38.6786 18.9062C38.3326 18.5252 37.853 18.133 37.297 17.6783L37.2969 17.6782L37.2566 17.6453C34.1188 15.0789 30.8152 13.3354 27.5571 12.317C25.1507 11.5649 22.7695 11.2085 20.5 11.2085Z" fill="#878787"/>
</svg>
