<svg width="41" height="41" viewBox="0 0 41 41" fill="none" xmlns="http://www.w3.org/2000/svg">
<path fill-rule="evenodd" clip-rule="evenodd" d="M4.5882 8.00507C3.41663 9.17664 3.41663 11.0623 3.41663 14.8335V26.1668C3.41663 29.9381 3.41663 31.8237 4.5882 32.9953C5.75977 34.1668 7.64539 34.1668 11.4166 34.1668H29.5833C33.3545 34.1668 35.2401 34.1668 36.4117 32.9953C37.5833 31.8237 37.5833 29.9381 37.5833 26.1668V14.8335C37.5833 11.0623 37.5833 9.17664 36.4117 8.00507C35.2401 6.8335 33.3545 6.8335 29.5833 6.8335H11.4166C7.64539 6.8335 5.75977 6.8335 4.5882 8.00507ZM10.666 13.043C10.3213 12.8132 9.8557 12.9063 9.62593 13.251C9.39617 13.5956 9.4893 14.0613 9.83394 14.291L20.0839 21.1244C20.3359 21.2923 20.6641 21.2923 20.916 21.1244L31.166 14.291C31.5106 14.0613 31.6038 13.5956 31.374 13.251C31.1442 12.9063 30.6786 12.8132 30.3339 13.043L20.5 19.5989L10.666 13.043Z" fill="#747474"/>
</svg>
