<svg width="60" height="66" viewBox="0 0 60 66" fill="none" xmlns="http://www.w3.org/2000/svg">
<path fill-rule="evenodd" clip-rule="evenodd" d="M18.5756 0.954708C17.9063 0.452681 16.9567 0.588339 16.4546 1.25771C15.9526 1.92708 16.0883 2.87668 16.7576 3.37871L25.455 9.90171L25.375 9.90171L25.2733 9.90171C20.2912 9.90169 16.4167 9.90168 13.3673 10.2621C10.2637 10.629 7.81831 11.3871 5.79803 13.0451C5.09683 13.6206 4.45387 14.2636 3.87841 14.9648C2.2204 16.985 1.46224 19.4305 1.0954 22.534C0.73495 25.5834 0.734963 29.4579 0.73498 34.44L0.73498 34.5417L0.73498 34.6434C0.734963 39.6255 0.73495 43.5 1.0954 46.5494C1.46224 49.653 2.2204 52.0984 3.87841 54.1187C4.45387 54.8199 5.09683 55.4628 5.79803 56.0383C7.81831 57.6963 10.2637 58.4545 13.3673 58.8213C13.9799 58.8937 14.6258 58.9516 15.3073 58.9978L13.2283 63.1559C12.8541 63.9042 13.1574 64.8142 13.9058 65.1884C14.6542 65.5626 15.5642 65.2593 15.9384 64.5109L18.6251 59.1374C20.5902 59.1817 22.7945 59.1817 25.273 59.1817L25.2731 59.1817L25.2732 59.1817L25.375 59.1817L34.625 59.1817L34.7267 59.1817L34.7269 59.1817C37.2054 59.1817 39.4098 59.1817 41.3748 59.1374L44.0616 64.5109C44.4358 65.2593 45.3458 65.5626 46.0942 65.1884C46.8426 64.8143 47.1459 63.9042 46.7717 63.1559L44.6927 58.9978C45.3742 58.9516 46.0201 58.8937 46.6327 58.8213C49.7362 58.4545 52.1817 57.6963 54.2019 56.0383C54.9031 55.4628 55.5461 54.8199 56.1216 54.1187C57.7796 52.0984 58.5377 49.6529 58.9046 46.5494C59.265 43.5001 59.265 39.6257 59.265 34.6437L59.265 34.6435L59.265 34.5417L59.265 34.44L59.265 34.4398C59.265 29.4578 59.265 25.5834 58.9046 22.534C58.5377 19.4305 57.7796 16.985 56.1216 14.9648C55.5461 14.2636 54.9031 13.6206 54.2019 13.0451C52.1817 11.3871 49.7362 10.629 46.6327 10.2621C43.5833 9.90168 39.7088 9.90169 34.7267 9.90171L34.625 9.90171L34.545 9.90171L43.2423 3.37871C43.9117 2.87668 44.0473 1.92708 43.5453 1.25771C43.0433 0.588339 42.0937 0.452681 41.4243 0.954708L30 9.52296L18.5756 0.954708ZM29.9991 12.9317L25.375 12.9317C20.2697 12.9317 16.5739 12.9342 13.723 13.2712C10.9055 13.6042 9.1112 14.2458 7.72024 15.3874C7.17246 15.8369 6.67018 16.3392 6.22063 16.887C5.07909 18.2779 4.43748 20.0722 4.10445 22.8897C3.76746 25.7406 3.76498 29.4364 3.76498 34.5417C3.76498 39.647 3.76746 43.3428 4.10445 46.1937C4.43748 49.0112 5.07909 50.8055 6.22063 52.1965C6.67018 52.7442 7.17246 53.2465 7.72024 53.6961C9.1112 54.8376 10.9055 55.4792 13.723 55.8122C16.5739 56.1492 20.2697 56.1517 25.375 56.1517L34.625 56.1517C39.7303 56.1517 43.4261 56.1492 46.277 55.8122C49.0945 55.4792 50.8888 54.8376 52.2797 53.6961C52.8275 53.2465 53.3298 52.7442 53.7793 52.1965C54.9209 50.8055 55.5625 49.0112 55.8955 46.1937C56.2325 43.3428 56.235 39.647 56.235 34.5417C56.235 29.4364 56.2325 25.7406 55.8955 22.8897C55.5625 20.0722 54.9209 18.2779 53.7793 16.887C53.3298 16.3392 52.8275 15.8369 52.2797 15.3874C50.8888 14.2458 49.0945 13.6042 46.277 13.2712C43.4261 12.9342 39.7303 12.9317 34.625 12.9317L30.0008 12.9317L29.9991 12.9317Z" fill="#22282F"/>
</svg>
