<svg width="24" height="24" viewBox="0 0 24 24" fill="none" xmlns="http://www.w3.org/2000/svg">
<path fill-rule="evenodd" clip-rule="evenodd" d="M10.8692 0.759633C11.2411 0.722711 11.6184 0.703799 12.0001 0.703799C18.2441 0.703799 23.3058 5.7655 23.3058 12.0094C23.3058 18.2533 18.2441 23.315 12.0001 23.315C11.6184 23.315 11.2411 23.2961 10.8692 23.2592C10.7099 23.2434 10.5679 23.3597 10.5521 23.519C10.5363 23.6783 10.6526 23.8203 10.8119 23.8361C11.2028 23.8749 11.5992 23.8948 12.0001 23.8948C18.5643 23.8948 23.8855 18.5735 23.8855 12.0094C23.8855 5.4453 18.5643 0.124023 12.0001 0.124023C11.5992 0.124023 11.2028 0.143885 10.8119 0.182695C10.6526 0.198513 10.5363 0.340488 10.5521 0.499805C10.5679 0.659122 10.7099 0.775451 10.8692 0.759633ZM7.478 1.6444C7.62471 1.5803 7.69168 1.4094 7.62758 1.2627C7.56348 1.11599 7.39258 1.04902 7.24587 1.11312C6.39713 1.48395 5.60016 1.95098 4.86874 2.50038C4.74072 2.59653 4.7149 2.77825 4.81105 2.90626C4.9072 3.03427 5.08893 3.0601 5.21694 2.96395C5.91282 2.44125 6.6709 1.99704 7.478 1.6444ZM2.95467 5.22621C3.05082 5.0982 3.025 4.91648 2.89699 4.82033C2.76897 4.72418 2.58725 4.75 2.4911 4.87801C1.94171 5.60944 1.47467 6.4064 1.10384 7.25515C1.03974 7.40186 1.10671 7.57275 1.25342 7.63685C1.40013 7.70095 1.57102 7.63399 1.63512 7.48728C1.98776 6.68017 2.43197 5.9221 2.95467 5.22621ZM0.750356 10.8785C0.766174 10.7192 0.649845 10.5772 0.490528 10.5614C0.331211 10.5456 0.189236 10.6619 0.173418 10.8212C0.134608 11.2121 0.114746 11.6085 0.114746 12.0094C0.114746 12.4103 0.134608 12.8067 0.173418 13.1976C0.189236 13.3569 0.331211 13.4733 0.490528 13.4574C0.649845 13.4416 0.766174 13.2996 0.750356 13.1403C0.713434 12.7684 0.694521 12.3912 0.694521 12.0094C0.694521 11.6276 0.713434 11.2504 0.750356 10.8785ZM1.63512 16.5316C1.57102 16.3848 1.40013 16.3179 1.25342 16.382C1.10671 16.4461 1.03974 16.617 1.10384 16.7637C1.47467 17.6124 1.94171 18.4094 2.4911 19.1408C2.58725 19.2688 2.76897 19.2947 2.89699 19.1985C3.025 19.1024 3.05082 18.9206 2.95467 18.7926C2.43197 18.0967 1.98776 17.3387 1.63512 16.5316ZM5.21583 21.0541C5.08783 20.9579 4.90611 20.9837 4.80994 21.1117C4.71377 21.2397 4.73958 21.4214 4.86758 21.5176C5.59932 22.0674 6.39668 22.5347 7.24587 22.9057C7.39258 22.9698 7.56348 22.9028 7.62758 22.7561C7.69168 22.6094 7.62471 22.4385 7.478 22.3744C6.67047 22.0216 5.91202 21.5771 5.21583 21.0541ZM13.4473 9.53369L13.4252 9.51893C12.6504 9.00237 12.041 8.59608 11.5483 8.36339C11.0506 8.12834 10.5876 8.02927 10.1567 8.25992C9.72568 8.49057 9.55131 8.93073 9.47082 9.47521C9.39114 10.0142 9.39114 10.7467 9.39115 11.6779V11.7045V12.3143V12.3409C9.39114 13.2722 9.39114 14.0046 9.47082 14.5436C9.55131 15.0881 9.72568 15.5283 10.1567 15.7589C10.5876 15.9896 11.0506 15.8905 11.5483 15.6554C12.041 15.4228 12.6504 15.0165 13.4252 14.4999L13.4473 14.4851L13.9047 14.1802L13.9258 14.1662L13.9259 14.1661C14.5625 13.7417 15.0678 13.4049 15.411 13.0948C15.7621 12.7774 15.9974 12.4409 15.9974 12.0094C15.9974 11.578 15.7621 11.2414 15.411 10.9241C15.0678 10.614 14.5625 10.2771 13.9258 9.85269L13.9047 9.83861L13.4473 9.53369ZM10.4302 8.7711C10.6117 8.674 10.8517 8.67558 11.3007 8.88763C11.75 9.09984 12.324 9.48158 13.1257 10.0161L13.5831 10.321C14.2456 10.7627 14.7147 11.0763 15.0222 11.3542C15.3256 11.6284 15.4176 11.8203 15.4176 12.0094C15.4176 12.1985 15.3256 12.3905 15.0222 12.6646C14.7147 12.9426 14.2456 13.2562 13.5831 13.6978L13.1257 14.0027C12.324 14.5373 11.75 14.919 11.3007 15.1312C10.8517 15.3433 10.6117 15.3448 10.4302 15.2477C10.2488 15.1506 10.117 14.9501 10.0444 14.4588C9.9717 13.9673 9.97093 13.2779 9.97093 12.3143V11.7045C9.97093 10.7409 9.9717 10.0515 10.0444 9.55999C10.117 9.06878 10.2488 8.86819 10.4302 8.7711Z" fill="white"/>
</svg>
