<svg width="20" height="18" viewBox="0 0 20 18" fill="none" xmlns="http://www.w3.org/2000/svg">
<path fill-rule="evenodd" clip-rule="evenodd" d="M8.43792 2.97498C6.88102 1.38269 4.31904 1.38269 2.76213 2.97498C1.25393 4.51746 1.25393 6.98215 2.76213 8.52463L9.8613 15.7851C9.93741 15.863 10.0626 15.863 10.1388 15.7851L17.2379 8.52463C18.7461 6.98216 18.7461 4.51746 17.2379 2.97498C15.681 1.38269 13.119 1.38269 11.5621 2.97498L10.5363 4.02414C10.3952 4.16846 10.2019 4.24981 10 4.24981C9.79819 4.24981 9.60488 4.16846 9.46377 4.02414L8.43792 2.97498ZM1.68962 1.9263C3.83492 -0.267751 7.36514 -0.267751 9.51043 1.9263L10 2.42702L10.4896 1.9263C12.6349 -0.267749 16.1651 -0.267752 18.3104 1.9263C20.3886 4.05172 20.3886 7.44789 18.3104 9.57331L11.2113 16.8338C10.5468 17.5134 9.45329 17.5134 8.78879 16.8338L1.68962 9.57331C-0.388568 7.44789 -0.388564 4.05172 1.68962 1.9263Z" fill="#22282F"/>
</svg>
